<?xml version="1.0" encoding="UTF-8" standalone="no"?>
<svg
   xmlns:dc="http://purl.org/dc/elements/1.1/"
   xmlns:cc="http://creativecommons.org/ns#"
   xmlns:rdf="http://www.w3.org/1999/02/22-rdf-syntax-ns#"
   xmlns:svg="http://www.w3.org/2000/svg"
   xmlns="http://www.w3.org/2000/svg"
   viewBox="0 0 1579.1467 1579.1467"
   height="1579.1467"
   width="1579.1467"
   xml:space="preserve"
   id="svg2"
   version="1.1"><metadata
     id="metadata8"><rdf:RDF><cc:Work
         rdf:about=""><dc:format>image/svg+xml</dc:format><dc:type
           rdf:resource="http://purl.org/dc/dcmitype/StillImage" /></cc:Work></rdf:RDF></metadata><defs
     id="defs6"><clipPath
       id="clipPath68"
       clipPathUnits="userSpaceOnUse"><path
         id="path66"
         d="M 0,1184.365 H 1184.365 V 0 H 0 Z" /></clipPath></defs><g
     transform="matrix(1.3333333,0,0,-1.3333333,0,1579.1467)"
     id="g10"><path
       id="path12"
       style="fill:#eeeeee;fill-opacity:1;fill-rule:nonzero;stroke:none"
       d="M 1079.653,94.771 H 95.181 v 1014.064 h 984.472 z" /><path
       id="path14"
       style="fill:#7e9499;fill-opacity:1;fill-rule:nonzero;stroke:none"
       d="M 1079.653,81.11 H 95.181 v 254.042 h 984.472 z" /><path
       id="path16"
       style="fill:#95acad;fill-opacity:1;fill-rule:nonzero;stroke:none"
       d="M 1079.653,335.152 H 95.181 v 16.499 h 984.472 z" /><path
       id="path18"
       style="fill:#b4d8d6;fill-opacity:1;fill-rule:nonzero;stroke:none"
       d="M 269.95,598.551 H 904.884 V 410.869 H 269.95 Z" /><path
       id="path20"
       style="fill:#acc3d3;fill-opacity:1;fill-rule:nonzero;stroke:none"
       d="m 269.95,390.408 h 634.934 v 20.461 H 269.95 Z" /><path
       id="path22"
       style="fill:#37b2b9;fill-opacity:1;fill-rule:nonzero;stroke:none"
       d="M 788.468,495.401 H 755.98 v -45.527 h 32.488 z" /><g
       transform="translate(796.9098,483.3188)"
       id="g24"><path
         id="path26"
         style="fill:#1a8b83;fill-opacity:1;fill-rule:nonzero;stroke:none"
         d="M 0,0 -6.613,-14.601 V 2.773 L 0,2.773 Z M -8.725,5.183 V -23.288 L 2.112,0.64 v 4.543 z" /></g><path
       id="path28"
       style="fill:#1d1d1b;fill-opacity:1;fill-rule:nonzero;stroke:none"
       d="m 785.979,493.247 h -27.223 v 2.154 h 27.223 z" /><g
       transform="translate(387.982,457.9722)"
       id="g30"><path
         id="path32"
         style="fill:#e9fff8;fill-opacity:1;fill-rule:nonzero;stroke:none"
         d="m 0,0 -57.52,-24.549 -33.187,77.758 57.52,24.549 z" /></g><g
       transform="translate(419.9029,458.1914)"
       id="g34"><path
         id="path36"
         style="fill:#e9fff8;fill-opacity:1;fill-rule:nonzero;stroke:none"
         d="m 0,0 -54.161,31.27 42.272,73.217 54.161,-31.27 z" /></g><g
       transform="translate(477.231,471.5098)"
       id="g38"><path
         id="path40"
         style="fill:#e9fff8;fill-opacity:1;fill-rule:nonzero;stroke:none"
         d="m 0,0 -54.161,31.27 42.272,73.218 54.161,-31.27 z" /></g><path
       id="path42"
       style="fill:#126b93;fill-opacity:1;fill-rule:nonzero;stroke:none"
       d="M 871.034,611.11 H 746.428 v -63.698 h 124.606 z" /><path
       id="path44"
       style="fill:#fffeff;fill-opacity:1;fill-rule:nonzero;stroke:none"
       d="m 852.904,565.943 h -88.347 v -40.098 h 88.347 z" /><path
       id="path46"
       style="fill:#fffeff;fill-opacity:1;fill-rule:nonzero;stroke:none"
       d="m 852.904,631.16 h -88.347 v -20.049 h 88.347 z" /><path
       id="path48"
       style="fill:#0f86b0;fill-opacity:1;fill-rule:nonzero;stroke:none"
       d="M 871.034,611.11 H 746.428 v -23.163 h 124.606 z" /><path
       id="path50"
       style="fill:#aebab8;fill-opacity:1;fill-rule:nonzero;stroke:none"
       d="m 847.619,558.64 h -77.776 v 3.535 h 77.776 z" /><path
       id="path52"
       style="fill:#aebab8;fill-opacity:1;fill-rule:nonzero;stroke:none"
       d="m 847.619,548.964 h -77.776 v 3.535 h 77.776 z" /><path
       id="path54"
       style="fill:#aebab8;fill-opacity:1;fill-rule:nonzero;stroke:none"
       d="m 847.619,539.288 h -77.776 v 3.536 h 77.776 z" /><path
       id="path56"
       style="fill:#aebab8;fill-opacity:1;fill-rule:nonzero;stroke:none"
       d="m 847.619,529.612 h -77.776 v 3.536 h 77.776 z" /><path
       id="path58"
       style="fill:#f8b936;fill-opacity:1;fill-rule:nonzero;stroke:none"
       d="m 757.574,597.177 h -6.372 v 4.956 h 6.372 z" /><path
       id="path60"
       style="fill:#e63526;fill-opacity:1;fill-rule:nonzero;stroke:none"
       d="m 765.951,597.177 h -6.372 v 4.956 h 6.372 z" /><g
       id="g62"><g
         clip-path="url(#clipPath68)"
         id="g64"><g
           transform="translate(306.1231,503.6333)"
           id="g70"><path
             id="path72"
             style="fill:#aebab8;fill-opacity:1;fill-rule:nonzero;stroke:none"
             d="M 0,0 C 2.246,0.083 45.693,20.121 45.693,20.121 L 48.29,16.553 2.246,-2.912 Z" /></g><g
           transform="translate(310.3507,493.9834)"
           id="g74"><path
             id="path76"
             style="fill:#aebab8;fill-opacity:1;fill-rule:nonzero;stroke:none"
             d="M 0,0 C 2.246,0.083 45.886,19.856 45.886,19.856 L 48.29,16.554 2.246,-2.912 Z" /></g><g
           transform="translate(314.9425,483.2251)"
           id="g78"><path
             id="path80"
             style="fill:#aebab8;fill-opacity:1;fill-rule:nonzero;stroke:none"
             d="M 0,0 C 2.246,0.083 46.341,19.23 46.341,19.23 L 48.29,16.554 2.246,-2.912 Z" /></g><g
           transform="translate(334.4957,447.1294)"
           id="g82"><path
             id="path84"
             style="fill:#aebab8;fill-opacity:1;fill-rule:nonzero;stroke:none"
             d="M 0,0 C 2.246,0.083 46.886,19.586 46.886,19.586 L 48.29,16.554 2.246,-2.912 Z" /></g><g
           transform="translate(411.3409,553.2207)"
           id="g86"><path
             id="path88"
             style="fill:#aebab8;fill-opacity:1;fill-rule:nonzero;stroke:none"
             d="m 0,0 38.584,-22.272 -2.196,-3.137 -38.27,22.9 z" /></g><g
           transform="translate(465.0768,568.2324)"
           id="g90"><path
             id="path92"
             style="fill:#aebab8;fill-opacity:1;fill-rule:nonzero;stroke:none"
             d="m 0,0 21.236,-11.136 -1.208,-1.569 -21.064,11.45 z" /></g><g
           transform="translate(405.5904,547.4702)"
           id="g94"><path
             id="path96"
             style="fill:#aebab8;fill-opacity:1;fill-rule:nonzero;stroke:none"
             d="M 0,0 38.584,-22.272 36.388,-25.409 -1.882,-2.51 Z" /></g><g
           transform="translate(459.1227,558.5981)"
           id="g98"><path
             id="path100"
             style="fill:#aebab8;fill-opacity:1;fill-rule:nonzero;stroke:none"
             d="M 0,0 38.584,-22.272 36.388,-25.409 -1.882,-2.51 Z" /></g><g
           transform="translate(452.9356,548.9639)"
           id="g102"><path
             id="path104"
             style="fill:#aebab8;fill-opacity:1;fill-rule:nonzero;stroke:none"
             d="m 0,0 38.584,-22.272 -2.196,-3.137 -38.27,22.9 z" /></g><g
           transform="translate(438.8897,515.2607)"
           id="g106"><path
             id="path108"
             style="fill:#aebab8;fill-opacity:1;fill-rule:nonzero;stroke:none"
             d="M 0,0 38.584,-22.272 36.388,-25.409 -1.882,-2.51 Z" /></g><g
           transform="translate(402.5016,538.5488)"
           id="g110"><path
             id="path112"
             style="fill:#aebab8;fill-opacity:1;fill-rule:nonzero;stroke:none"
             d="m 0,0 38.584,-22.272 -2.196,-3.137 -38.27,22.9 z" /></g><g
           transform="translate(386.8189,503.7759)"
           id="g114"><path
             id="path116"
             style="fill:#aebab8;fill-opacity:1;fill-rule:nonzero;stroke:none"
             d="m 0,0 38.584,-22.272 -2.196,-3.137 -38.27,22.9 z" /></g><g
           transform="translate(382.2686,494.6514)"
           id="g118"><path
             id="path120"
             style="fill:#aebab8;fill-opacity:1;fill-rule:nonzero;stroke:none"
             d="M 0,0 38.584,-22.272 36.388,-25.409 -1.882,-2.51 Z" /></g><g
           transform="translate(578.7814,233.832)"
           id="g122"><path
             id="path124"
             style="fill:#000000;fill-opacity:1;fill-rule:nonzero;stroke:none"
             d="m 0,0 h -2.131 c -6.6,0 -12,5.399 -12,12 v 54.746 c 0,6.6 5.4,12 12,12 H 0 c 6.6,0 12,-5.4 12,-12 V 12 C 12,5.399 6.6,0 0,0" /></g><g
           transform="translate(683.8063,303.0776)"
           id="g126"><path
             id="path128"
             style="fill:#494949;fill-opacity:1;fill-rule:nonzero;stroke:none"
             d="m 0,0 h -205.633 c -3.302,0 -6.003,2.701 -6.003,6.003 v 6.994 c 0,3.302 2.701,6.003 6.003,6.003 H 0 c 3.302,0 6.003,-2.701 6.003,-6.003 V 6.003 C 6.003,2.701 3.302,0 0,0" /></g><g
           transform="translate(696.6666,321.6675)"
           id="g130"><path
             id="path132"
             style="fill:#808080;fill-opacity:1;fill-rule:nonzero;stroke:none"
             d="m 0,0 h -233.598 c -6.6,0 -12,5.4 -12,12 v 5.312 c 0,6.6 5.4,12 12,12 H 0 c 6.6,0 12,-5.4 12,-12 V 12 C 12,5.4 6.6,0 0,0" /></g><g
           transform="translate(696.6666,355.9561)"
           id="g134"><path
             id="path136"
             style="fill:#808080;fill-opacity:1;fill-rule:nonzero;stroke:none"
             d="m 0,0 h -233.598 c -6.6,0 -12,4.965 -12,11.035 l 60,268.756 c 0,6.069 5.4,11.034 12,11.034 H -60 c 6.6,0 12,-4.965 12,-11.034 L 12,11.035 C 12,4.965 6.6,0 0,0" /></g><g
           transform="translate(669.3815,522.5864)"
           id="g138"><path
             id="path140"
             style="fill:#000000;fill-opacity:1;fill-rule:nonzero;stroke:none"
             d="M 0,0 C 0,0 -13.095,117.856 -91.666,117.856 -170.236,117.856 -183.331,0 -183.331,0 c 0,0 -39.285,-78.57 -39.285,-144.045 0,-31.92 26.19,0 26.19,0 0,0 15.654,-42.218 104.76,-42.218 89.107,0 104.761,42.218 104.761,42.218 0,0 26.19,-33.557 26.19,0 C 39.285,-78.57 0,0 0,0" /></g><g
           transform="translate(618.6378,592.9727)"
           id="g142"><path
             id="path144"
             style="fill:#fffcfb;fill-opacity:1;fill-rule:nonzero;stroke:none"
             d="m 0,0 c -20.461,0 -18.005,-13.914 -18.005,-13.914 v -27.008 c 0,0 -0.819,-14.732 -22.917,-14.732 -22.098,0 -22.916,14.732 -22.916,14.732 v 27.008 c 0,0 2.455,13.914 -18.006,13.914 -20.461,0 -24.553,-20.052 -24.553,-33.556 v -19.643 c 0,-22.098 26.19,-26.19 26.19,-26.19 h 39.285 39.285 c 0,0 26.19,4.092 26.19,26.19 v 19.643 C 24.553,-20.052 20.461,0 0,0" /></g><g
           transform="translate(589.7399,351.7715)"
           id="g146"><path
             id="path148"
             style="fill:#fffcfb;fill-opacity:1;fill-rule:nonzero;stroke:none"
             d="m 0,0 h -24.048 c -26.138,0 -47.523,21.385 -47.523,47.523 v 36.461 c 0,26.138 21.385,47.523 47.523,47.523 H 0 c 26.138,0 47.523,-21.385 47.523,-47.523 V 47.523 C 47.523,21.385 26.138,0 0,0" /></g><g
           transform="translate(588.7467,556.9795)"
           id="g150"><path
             id="path152"
             style="fill:#ff820a;fill-opacity:1;fill-rule:nonzero;stroke:none"
             d="M 0,0 -11.031,-11.031 -22.062,0 Z" /></g><g
           transform="translate(626.6993,554.7529)"
           id="g154"><path
             id="path156"
             style="fill:#000000;fill-opacity:1;fill-rule:nonzero;stroke:none"
             d="m 0,0 c 0,-3.616 -2.932,-6.547 -6.547,-6.547 -3.617,0 -6.548,2.931 -6.548,6.547 0,3.616 2.931,6.548 6.548,6.548 C -2.932,6.548 0,3.616 0,0" /></g><g
           transform="translate(541.8273,554.7529)"
           id="g158"><path
             id="path160"
             style="fill:#000000;fill-opacity:1;fill-rule:nonzero;stroke:none"
             d="m 0,0 c 0,-3.616 -2.931,-6.547 -6.547,-6.547 -3.617,0 -6.548,2.931 -6.548,6.547 0,3.616 2.931,6.548 6.548,6.548 C -2.931,6.548 0,3.616 0,0" /></g><g
           transform="translate(503.3653,355.7524)"
           id="g162"><path
             id="path164"
             style="fill:#ff820a;fill-opacity:1;fill-rule:nonzero;stroke:none"
             d="m 0,0 -3.609,17.87 13.86,-4.566 1.128,12.141 21.942,-12.035 5.07,-16.322 -4.109,-10.027 H 14.211 Z" /></g><g
           transform="translate(649.358,355.7524)"
           id="g166"><path
             id="path168"
             style="fill:#ff820a;fill-opacity:1;fill-rule:nonzero;stroke:none"
             d="m 0,0 3.609,17.87 -13.86,-4.566 -1.127,12.141 -21.943,-12.035 -5.07,-16.322 4.109,-10.027 h 20.071 z" /></g><g
           transform="translate(614.6993,698.3008)"
           id="g170"><path
             id="path172"
             style="fill:#808080;fill-opacity:1;fill-rule:nonzero;stroke:none"
             d="m 0,0 h -67.419 c -6.601,0 -12,-5.4 -12,-12 v -22.542 c 0,-6.601 5.399,-12 12,-12 H 0 c 6.6,0 12,5.399 12,12 V -12 C 12,-5.4 6.6,0 0,0" /></g><g
           transform="translate(647.2018,233.832)"
           id="g174"><path
             id="path176"
             style="fill:#000000;fill-opacity:1;fill-rule:nonzero;stroke:none"
             d="m 0,0 h -141.68 c -3.171,0 -5.765,2.594 -5.765,5.765 0,3.171 2.594,5.765 5.765,5.765 H 0 C 3.171,11.53 5.765,8.936 5.765,5.765 5.765,2.594 3.171,0 0,0" /></g><g
           transform="translate(512.2404,224.5889)"
           id="g178"><path
             id="path180"
             style="fill:#000000;fill-opacity:1;fill-rule:nonzero;stroke:none"
             d="m 0,0 c 0,-5.916 -4.796,-10.712 -10.712,-10.712 -5.916,0 -10.713,4.796 -10.713,10.712 0,5.916 4.797,10.713 10.713,10.713 C -4.796,10.713 0,5.916 0,0" /></g><g
           transform="translate(664.6158,224.5889)"
           id="g182"><path
             id="path184"
             style="fill:#000000;fill-opacity:1;fill-rule:nonzero;stroke:none"
             d="m 0,0 c 0,-5.916 -4.796,-10.712 -10.712,-10.712 -5.916,0 -10.713,4.796 -10.713,10.712 0,5.916 4.797,10.713 10.713,10.713 C -4.796,10.713 0,5.916 0,0" /></g><g
           transform="translate(588.7467,224.5889)"
           id="g186"><path
             id="path188"
             style="fill:#000000;fill-opacity:1;fill-rule:nonzero;stroke:none"
             d="m 0,0 c 0,-6.092 -4.938,-11.03 -11.031,-11.03 -6.092,0 -11.031,4.938 -11.031,11.03 0,6.093 4.939,11.031 11.031,11.031 C -4.938,11.031 0,6.093 0,0" /></g><path
           id="path190"
           style="fill:#b4d8d6;fill-opacity:1;fill-rule:nonzero;stroke:none"
           d="m 290.849,224.589 h -20.898 v 165.819 h 20.898 z" /><path
           id="path192"
           style="fill:#b4d8d6;fill-opacity:1;fill-rule:nonzero;stroke:none"
           d="m 904.884,224.589 h -20.898 v 165.819 h 20.898 z" /></g>
		   </g>
</g></svg>